<svg width="24" height="24" viewBox="0 0 24 24" fill="none" xmlns="http://www.w3.org/2000/svg">
<path fill-rule="evenodd" clip-rule="evenodd" d="M5.46995 5.46934C5.61058 5.32889 5.8012 5.25 5.99995 5.25C6.1987 5.25 6.38933 5.32889 6.52995 5.46934L18.53 17.4693C18.6036 17.538 18.6627 17.6208 18.7037 17.7128C18.7447 17.8048 18.7668 17.9041 18.7685 18.0048C18.7703 18.1055 18.7518 18.2055 18.7141 18.2989C18.6764 18.3923 18.6202 18.4772 18.549 18.5484C18.4778 18.6196 18.3929 18.6757 18.2995 18.7135C18.2062 18.7512 18.1061 18.7697 18.0054 18.7679C17.9047 18.7662 17.8054 18.7441 17.7134 18.7031C17.6214 18.6621 17.5386 18.603 17.4699 18.5293L5.46995 6.52934C5.3295 6.38871 5.25061 6.19809 5.25061 5.99934C5.25061 5.80059 5.3295 5.60997 5.46995 5.46934Z" fill="#3E74CB"/>
<path fill-rule="evenodd" clip-rule="evenodd" d="M18.5299 5.46934C18.6704 5.60997 18.7493 5.80059 18.7493 5.99934C18.7493 6.19809 18.6704 6.38871 18.5299 6.52934L6.52994 18.5293C6.38776 18.6618 6.19972 18.7339 6.00542 18.7305C5.81111 18.7271 5.62573 18.6484 5.48832 18.511C5.3509 18.3735 5.27219 18.1882 5.26876 17.9939C5.26533 17.7996 5.33746 17.6115 5.46994 17.4693L17.4699 5.46934C17.6106 5.32889 17.8012 5.25 17.9999 5.25C18.1987 5.25 18.3893 5.32889 18.5299 5.46934Z" fill="#3E74CB"/>
</svg>
