<svg width="24" height="24" viewBox="0 0 24 24" fill="none" xmlns="http://www.w3.org/2000/svg">
<path d="M19 13.9996V16.9996H22V18.9996H19V21.9996H17V18.9996H14V16.9996H17V13.9996H19ZM20.243 4.75657C21.3262 5.83959 21.9542 7.29586 21.9983 8.82697C22.0423 10.3581 21.4992 11.8481 20.48 12.9916L19.06 11.5736C20.39 10.0496 20.32 7.65957 18.827 6.16957C18.1044 5.44814 17.1332 5.0304 16.1125 5.00196C15.0917 4.97351 14.0988 5.33651 13.337 6.01657L12.002 7.21457L10.666 6.01757C9.90772 5.33947 8.91951 4.97577 7.90251 5.0005C6.88551 5.02522 5.91615 5.43651 5.19167 6.15067C4.46719 6.86483 4.04203 7.82819 4.00272 8.84473C3.96341 9.86127 4.31289 10.8546 4.98005 11.6226L13.412 20.0686L12 21.4846L3.52005 12.9926C2.4993 11.8485 1.95525 10.3571 1.99958 8.82456C2.04391 7.29198 2.67327 5.83453 3.75844 4.7514C4.84361 3.66828 6.30225 3.04168 7.83491 3.00024C9.36756 2.9588 10.8579 3.50567 12 4.52857C13.1428 3.50623 14.6337 2.9602 16.1664 3.0026C17.6992 3.045 19.1585 3.67262 20.243 4.75657Z" fill="white"/>
</svg>
