<svg width="24" height="20" viewBox="0 0 24 20" fill="none" xmlns="http://www.w3.org/2000/svg">
<g clip-path="url(#clip0_1_2605)">
<path d="M15.75 16.5312C17.226 16.5312 18.405 15.6763 18.6562 14.5642C20.0738 14.2815 21.3038 13.5518 21.8438 12.3934H21.8663L23.4615 8.8505C23.8131 8.2843 23.9972 7.66216 24 7.03125C24 4.74294 21.6405 2.875 18.75 2.875C16.146 2.875 13.9762 4.39025 13.5705 6.36328C13.1632 6.04562 12.6105 5.84375 12 5.84375C11.3895 5.84375 10.8375 6.04562 10.4295 6.36328C10.0245 4.39025 7.854 2.875 5.25 2.875C2.3595 2.875 0 4.74294 0 7.03125C0 7.60956 0.15 8.16294 0.422249 8.66406L2.13225 12.4492L2.15625 12.467V12.4866C2.70375 13.5376 3.91725 14.275 5.34375 14.5647C5.595 15.6751 6.774 16.5312 8.25 16.5312C9.64275 16.5312 10.7715 15.7683 11.1097 14.75H12.891C13.2285 15.7683 14.3573 16.5312 15.75 16.5312ZM15.75 15.3438C14.8575 15.3438 14.25 14.8628 14.25 14.1562V13.5625H9.75V14.1562C9.75 14.8628 9.1425 15.3438 8.25 15.3438C7.3575 15.3438 6.75 14.8628 6.75 14.1562V13.6183L6.0705 13.5625C4.956 13.4699 3.996 12.8548 3.5625 12.0603C3.554 12.0476 3.5465 12.035 3.54 12.0223L2.9775 10.7606C3.68395 11.0383 4.46125 11.1846 5.25 11.1881C7.443 11.1881 9.31875 10.1092 10.1025 8.59044C10.3075 8.84109 10.5886 9.04708 10.9201 9.18959C11.2515 9.3321 11.6228 9.40659 12 9.40625C12.3773 9.40653 12.7486 9.33195 13.0801 9.18933C13.4115 9.04671 13.6926 8.84061 13.8975 8.58984C14.682 10.1087 16.5577 11.1875 18.75 11.1875C19.554 11.1875 20.3175 11.0373 21 10.779L20.4375 11.9855V12.0033C20.0025 12.9236 19.0815 13.4663 17.9295 13.5625L17.25 13.6183V14.1562C17.25 14.8628 16.6425 15.3438 15.75 15.3438ZM18.75 10C16.6702 10 15 8.67772 15 7.03125C15 5.38478 16.6702 4.0625 18.75 4.0625C20.8298 4.0625 22.5 5.38478 22.5 7.03125C22.5 7.45162 22.3688 7.83875 22.1715 8.20094C22.1595 8.22291 22.1618 8.252 22.149 8.27456C21.8509 8.78979 21.372 9.22634 20.7694 9.53224C20.1668 9.83814 19.4658 10.0005 18.75 10ZM5.25 10C3.17025 10 1.5 8.67772 1.5 7.03125C1.5 5.38478 3.17025 4.0625 5.25 4.0625C7.32975 4.0625 9 5.38478 9 7.03125C9 8.67772 7.32975 10 5.25 10ZM12 8.21875C11.577 8.21875 11.25 7.95988 11.25 7.625C11.25 7.29012 11.577 7.03125 12 7.03125C12.423 7.03125 12.75 7.29012 12.75 7.625C12.75 7.95988 12.423 8.21875 12 8.21875Z" fill="#933C00"/>
</g>
<defs>
<clipPath id="clip0_1_2605">
<rect width="24" height="19" fill="white" transform="matrix(-1 0 0 -1 24 19.5)"/>
</clipPath>
</defs>
</svg>
