<svg width="18" height="16" viewBox="0 0 18 16" fill="none" xmlns="http://www.w3.org/2000/svg">
<path d="M1.4001 6.59939L2.6001 11.2664C2.6001 11.2664 3.0001 13.1332 4.6001 13.1332C4.6001 13.1332 4.6001 15 6.2001 15C7.8001 15 7.8001 13.1332 7.8001 13.1332H10.2001C10.2001 13.1332 10.2001 15 11.8001 15C13.4001 15 13.4001 13.1332 13.4001 13.1332C15.0001 13.1332 15.4001 11.2664 15.4001 11.2664L16.6001 6.59939" stroke="#8A8685" stroke-width="1.5" stroke-linecap="round" stroke-linejoin="round"/>
<path d="M13.8 0.999588C12.9513 0.999588 12.1374 1.39295 11.5373 2.09314C10.9371 2.79332 10.6 3.74298 10.6 4.73319C10.6 5.72341 10.9371 6.67306 11.5373 7.37325C12.1374 8.07344 12.9513 8.4668 13.8 8.4668C14.6487 8.4668 15.4626 8.07344 16.0627 7.37325C16.6629 6.67306 17 5.72341 17 4.73319C17 3.74298 16.6629 2.79332 16.0627 2.09314C15.4626 1.39295 14.6487 0.999588 13.8 0.999588ZM4.2 0.999588C3.35131 0.999588 2.53738 1.39295 1.93726 2.09314C1.33714 2.79332 1 3.74298 1 4.73319C1 5.72341 1.33714 6.67306 1.93726 7.37325C2.53738 8.07344 3.35131 8.4668 4.2 8.4668C5.04869 8.4668 5.86263 8.07344 6.46274 7.37325C7.06286 6.67306 7.4 5.72341 7.4 4.73319C7.4 3.74298 7.06286 2.79332 6.46274 2.09314C5.86263 1.39295 5.04869 0.999588 4.2 0.999588Z" stroke="#8A8685" stroke-width="1.5" stroke-linecap="round" stroke-linejoin="round"/>
<path d="M8.99985 4.73319C8.57551 4.73319 8.16854 4.92987 7.86848 5.27997C7.56842 5.63006 7.39985 6.10489 7.39985 6.59999C7.39985 7.0951 7.56842 7.56993 7.86848 7.92002C8.16854 8.27012 8.57551 8.4668 8.99985 8.4668C9.4242 8.4668 9.83117 8.27012 10.1312 7.92002C10.4313 7.56993 10.5999 7.0951 10.5999 6.59999C10.5999 6.10489 10.4313 5.63006 10.1312 5.27997C9.83117 4.92987 9.4242 4.73319 8.99985 4.73319Z" stroke="#8A8685" stroke-width="1.5" stroke-linecap="round" stroke-linejoin="round"/>
</svg>
