<svg width="14" height="14" viewBox="0 0 14 14" fill="none" xmlns="http://www.w3.org/2000/svg">
<path d="M5.16245 9.8151L6.99995 8.70677L8.83745 9.82969L8.3562 7.72969L9.97495 6.32969L7.84578 6.1401L6.99995 4.15677L6.15411 6.12552L4.02495 6.3151L5.6437 7.72969L5.16245 9.8151ZM6.99995 10.0776L4.57911 11.5359C4.47217 11.604 4.36036 11.6332 4.2437 11.6234C4.12703 11.6137 4.02495 11.5748 3.93745 11.5068C3.84995 11.4387 3.78189 11.3537 3.73328 11.2519C3.68467 11.15 3.67495 11.0356 3.70411 10.9089L4.34578 8.1526L2.20203 6.30052C2.10481 6.21302 2.04414 6.11327 2.02003 6.00127C1.99592 5.88927 2.00311 5.77999 2.04161 5.67344C2.08011 5.56688 2.13845 5.47938 2.21661 5.41094C2.29478 5.34249 2.40173 5.29874 2.53745 5.27969L5.36661 5.03177L6.46036 2.43594C6.50898 2.31927 6.58442 2.23177 6.6867 2.17344C6.78898 2.1151 6.89339 2.08594 6.99995 2.08594C7.1065 2.08594 7.21092 2.1151 7.3132 2.17344C7.41548 2.23177 7.49092 2.31927 7.53953 2.43594L8.63328 5.03177L11.4624 5.27969C11.5986 5.29913 11.7055 5.34288 11.7833 5.41094C11.8611 5.47899 11.9194 5.56649 11.9583 5.67344C11.9972 5.78038 12.0046 5.88985 11.9804 6.00185C11.9563 6.11385 11.8955 6.21341 11.7979 6.30052L9.65411 8.1526L10.2958 10.9089C10.3249 11.0352 10.3152 11.1496 10.2666 11.2519C10.218 11.3541 10.1499 11.4391 10.0624 11.5068C9.97495 11.5744 9.87286 11.6133 9.7562 11.6234C9.63953 11.6335 9.52773 11.6044 9.42078 11.5359L6.99995 10.0776Z" fill="#FFC828"/>
</svg>
