<svg width="5" height="4" viewBox="0 0 5 4" fill="none" xmlns="http://www.w3.org/2000/svg">
<path d="M3.96147 -0.000286579H0.211469C0.173502 -0.00016737 0.136287 0.010304 0.103828 0.0300007C0.0713696 0.0496972 0.044898 0.0778728 0.0272617 0.111495C0.00962543 0.145118 0.00149298 0.182914 0.00373936 0.220814C0.00598574 0.258715 0.0185261 0.295285 0.0400109 0.326589L1.91501 3.03492C1.99272 3.14721 2.1798 3.14721 2.25772 3.03492L4.13272 0.326589C4.15442 0.29535 4.16715 0.258762 4.16952 0.220798C4.17189 0.182834 4.16381 0.144947 4.14615 0.111254C4.1285 0.0775602 4.10195 0.0493481 4.06939 0.0296836C4.03683 0.0100188 3.99951 -0.000346422 3.96147 -0.000286579Z" fill="#3E74CB"/>
</svg>
