<svg width="17" height="17" viewBox="0 0 17 17" fill="none" xmlns="http://www.w3.org/2000/svg">
<path d="M12.0415 15.5827C11.4512 15.5827 10.9495 15.3761 10.5363 14.9629C10.1231 14.5497 9.9165 14.048 9.9165 13.4577C9.9165 13.3868 9.93421 13.2216 9.96963 12.9618L4.99359 10.0577C4.8047 10.2348 4.5863 10.3736 4.33838 10.4742C4.09046 10.5748 3.82484 10.6248 3.5415 10.6243C2.95123 10.6243 2.44949 10.4178 2.0363 10.0046C1.6231 9.59136 1.4165 9.08963 1.4165 8.49935C1.4165 7.90907 1.6231 7.40734 2.0363 6.99414C2.44949 6.58095 2.95123 6.37435 3.5415 6.37435C3.82484 6.37435 4.09046 6.42464 4.33838 6.52522C4.5863 6.62581 4.8047 6.7644 4.99359 6.94102L9.96963 4.03685C9.94602 3.95421 9.93138 3.87464 9.92571 3.79814C9.92004 3.72164 9.91698 3.63593 9.9165 3.54102C9.9165 2.95074 10.1231 2.449 10.5363 2.03581C10.9495 1.62261 11.4512 1.41602 12.0415 1.41602C12.6318 1.41602 13.1335 1.62261 13.5467 2.03581C13.9599 2.449 14.1665 2.95074 14.1665 3.54102C14.1665 4.13129 13.9599 4.63303 13.5467 5.04622C13.1335 5.45942 12.6318 5.66602 12.0415 5.66602C11.7582 5.66602 11.4925 5.61572 11.2446 5.51514C10.9967 5.41456 10.7783 5.27596 10.5894 5.09935L5.61338 8.00352C5.63699 8.08615 5.65187 8.16596 5.658 8.24293C5.66414 8.3199 5.66698 8.40538 5.6665 8.49935C5.66603 8.59332 5.6632 8.67903 5.658 8.75647C5.65281 8.83392 5.63793 8.91349 5.61338 8.99518L10.5894 11.8993C10.7783 11.7223 10.9967 11.5837 11.2446 11.4836C11.4925 11.3834 11.7582 11.3332 12.0415 11.3327C12.6318 11.3327 13.1335 11.5393 13.5467 11.9525C13.9599 12.3657 14.1665 12.8674 14.1665 13.4577C14.1665 14.048 13.9599 14.5497 13.5467 14.9629C13.1335 15.3761 12.6318 15.5827 12.0415 15.5827Z" fill="#3E74CB"/>
</svg>
