<svg _ngcontent-frend-c550954098="" viewBox="0 0 45 24" xmlns="http://www.w3.org/2000/svg"
    aria-labelledby="tg-899f5266-af05-39dc-11bc-714f0f6b08ed" preserveAspectRatio="xMinYMid meet"
    focusable="false" role="img" height="24" width="45">
    <g _ngcontent-frend-c550954098="" fill="none" fill-rule="evenodd">
        <path _ngcontent-frend-c550954098=""
            d="M38.502 7.813a3.514 3.514 0 0 1 3.513 3.507v3.49h-3.49a3.514 3.514 0 0 1-3.513-3.507c0-1.2.608-2.261 1.532-2.894a3.498 3.498 0 0 1 1.958-.596m1.54-2.609c-.416-.155-.91-.226-1.513-.215a6.6 6.6 0 0 0-.907.087c-3.071.43-5.445 3.062-5.445 6.244 0 3.48 2.837 6.312 6.325 6.312h3.506a3.667 3.667 0 0 1-6.378 2.23 1.407 1.407 0 0 0-1.985-.099 1.4 1.4 0 0 0-.098 1.981 6.495 6.495 0 0 0 4.802 2.127c3.571 0 6.477-2.9 6.477-6.464V11.32c0-2.95-2.04-5.426-4.785-6.116M25.29 5.007c-3.012 0-5.462 2.446-5.462 5.452v3.08a1.424 1.424 0 0 1-2.847 0V6.48c0-.775-.63-1.402-1.405-1.402-.777 0-1.406.627-1.406 1.402v7.06a4.235 4.235 0 0 0 8.47-.001l-.001-3.08a2.652 2.652 0 0 1 5.302 0v5.904c0 .775.63 1.402 1.406 1.402.776 0 1.405-.627 1.405-1.402v-5.904c0-3.006-2.45-5.452-5.462-5.452M6.324 14.827H2.811V11.32a3.514 3.514 0 0 1 7.027 0c0 .362-.055.712-.158 1.041a3.45 3.45 0 0 1-.167.422 3.54 3.54 0 0 1-1.226 1.444 3.504 3.504 0 0 1-1.963.6m5.243-7.034a6.376 6.376 0 0 0-2.783-2.289 6.301 6.301 0 0 0-2.46-.497c-.197 0-.38.011-.556.028l-.155.015a.22.22 0 0 1-.013.002C2.453 5.412 0 8.084 0 11.32v11.149a1.404 1.404 0 1 0 2.81 0v-4.837h3.514a6.318 6.318 0 0 0 5.827-3.857 6.238 6.238 0 0 0 .498-2.455 6.275 6.275 0 0 0-1.082-3.527"
            fill="#7B4288"></path>
        <path _ngcontent-frend-c550954098=""
            d="M17.506 1.927a1.929 1.929 0 0 1-1.931 1.927 1.93 1.93 0 0 1-1.931-1.927A1.93 1.93 0 0 1 15.574 0c1.067 0 1.932.863 1.932 1.927"
            fill="#F9AF2C"></path>
    </g>
    <title _ngcontent-frend-c550954098="" id="tg-899f5266-af05-39dc-11bc-714f0f6b08ed">Ping</title>
</svg>